<?xml version="1.0" encoding="UTF-8"?>
<svg xmlns="http://www.w3.org/2000/svg" xmlns:xlink="http://www.w3.org/1999/xlink" viewBox="0 0 600 200" style="width: 200px">

    <defs>
        <path id="two"
d="M158 1479v-98l-58 -74v-40q11 -74 74 -74q90 0 90 74v16q0 33 -57 90v74l254 254h876l115 -107l25 49l-115 107h-926zM477 1652v-9h836v9h-836zM1403 1414l-17 -459l-65 -65l33 -33q82 53 82 123l16 426l98 139h115q90 -104 90 -156v-131q-51 -51 -57 -90q0 -71 98 -82
q66 21 66 74v16q0 33 -50 82v140q0 36 -114 204h-180zM354 1479v-221l-57 -73v-41q0 -62 82 -74q82 12 82 74v16q0 37 -58 98v197l91 90h802l82 -74l25 49l-82 74h-852zM1567 1496v-8h32v8h-32zM264 1439v-50l33 -32v114zM1542 1365v-8q0 -37 57 -90l-8 -33l-8 -254
q0 -15 -287 -303h-8v-9h66l278 279q0 340 49 360q25 19 25 58q0 55 -82 82q-82 -19 -82 -82zM1632 1406l33 -33q0 -43 -25 -49h-32l-25 24v33q8 25 49 25zM166 1316h33l24 -25v-33l-24 -24h-33l-25 24v33zM1501 1299v-8l-8 -336q43 0 49 213l-33 131h-8zM1772 1209h24
q16 -4 33 -41q-17 -37 -33 -41h-24l-33 33v16zM362 1193h33l25 -25v-33l-25 -24h-33l-24 24v33zM109 652v-500l278 -262h967q57 -57 90 -57h41q33 16 49 49l-33 8l-49 -16h-16q-25 8 -25 49l8 8v8h-1007l-254 254v435l245 245h451l16 58h-483zM903 865h33l49 33l49 -33h107
v8q-70 0 -131 58h-33q-74 -13 -74 -66zM1141 816h-516l-279 -279v-278l270 -270h811q60 -58 99 -58h8q74 10 74 74v16q0 64 -82 74q-31 0 -90 -57h-787q-254 217 -254 270v205l254 254h492q57 -58 90 -58h16q64 0 74 82q0 74 -98 82zM387 783h131l41 41h-131zM1231 832
q49 -4 49 -24v-33l-25 -25h-32l-25 25v25zM264 619v-417l115 -115h74q-148 131 -148 172v262q0 121 115 164l49 49h-90zM961 677h-304l-114 -115v-328l106 -106h598q51 -58 107 -58q65 21 65 74v17q-10 73 -73 73h-9q-39 0 -98 -57h-565l-82 82v33l16 16h107q57 -57 90 -57
h8q82 10 82 90q0 63 -98 74l-82 -58h-107l-16 17v49l16 16h230q26 0 98 -57h49q57 28 57 82q0 63 -90 82q-37 -7 -90 -58h-254l-16 17v32l82 82h278q43 -39 90 -57q91 16 91 90q-15 74 -74 74h-41zM1051 693q36 -16 41 -33v-24q-5 -17 -41 -33q-37 16 -41 33v24q4 17 41 33z
M1173 677v-9h17v9h-17zM207 611v-401h8v401h-8zM649 537v-8h172q23 0 82 41v8h-24l-82 -16h-17l-65 16h-25zM444 496v-196l50 -49v295zM952 505h17l32 -33v-25l-24 -24h-33l-24 24v25zM821 374l33 -33v-25l-25 -24h-32l-25 24v33q8 25 49 25zM657 259l33 -33h41l-33 33h-41z
M1468 136v-8l123 24q21 0 49 -90h9l8 41v17q-10 73 -74 73h-16q-33 0 -90 -57h-9zM1329 193h25q16 -4 32 -41q-16 -36 -32 -41h-25l-33 33v17zM1518 54h24q33 -12 33 -57l-33 -25h-24q-17 4 -33 41q16 37 33 41zM387 30l33 -33h123l-33 33h-123z" />
        <path id="zero"
d="M100 1482v-1237l271 -271h852l270 271v1237l-270 270h-852zM395 1703h803l246 -246v-1188l-246 -246h-803l-246 246v1188zM199 1433v-181q12 0 24 33h17v164l139 147h835l140 -147v-164q24 0 24 -25l8 -8h9v181l-222 221h-753zM289 1433v-115h49v65q0 45 90 115h737
q90 -70 90 -115v-65h50v115l-115 114h-787zM395 1392v-99q41 -51 49 -106l-24 -66h8l25 8q131 -26 131 -122v-17q0 -41 -58 -106v-435l58 -57h164v254q-52 62 -58 115q0 106 131 123v16q19 131 123 131h25l41 -8q41 106 131 106l32 -8l-24 66q8 55 49 106v99l-57 57h-688z
M231 1170l58 -82v-712l270 -271h475l271 271v712q57 64 57 99q-8 82 -74 82h-16q-74 0 -74 -99l57 -82v-688l-245 -245h-410l-262 245v688q57 64 57 99q-8 82 -73 82h-17q-74 0 -74 -99zM313 1236q37 -16 41 -33v-24l-32 -33h-17l-33 33v24q4 17 41 33zM1280 1236
q37 -16 41 -33v-24l-33 -33h-16l-33 33v24q4 17 41 33zM199 1129v-835l221 -221h106q-37 57 -82 57h-65l-139 147v803l-33 49h-8zM1386 1129l-32 -49v-803l-140 -147h-65q-45 0 -82 -57h106l222 221v835h-9zM371 990q8 -31 57 -82v-499l115 -115h508l114 115v499
q58 56 58 99q-25 73 -82 73h-8q-74 -10 -74 -73v-17q0 -33 57 -90v-467q-69 -90 -115 -90h-8l-16 16v451q57 57 57 106q0 64 -98 74q-66 -20 -66 -74v-16q0 -33 58 -90v-451l-17 -16h-49l-16 16v303q57 60 57 99q0 67 -82 82q-82 -11 -82 -82v-8q0 -33 58 -91v-303l-17 -16
h-188q-45 0 -115 90v467q58 57 58 90v17q-11 73 -74 73h-8q-68 0 -82 -90zM444 1039h25q16 -4 33 -41q-17 -37 -33 -41h-25l-32 33v17zM1124 1039h25l33 -32v-17l-33 -33h-25q-16 4 -32 41q16 37 32 41zM936 949h25l32 -33v-16l-32 -33h-25l-25 25v33zM1059 851l-33 -49
v-393l41 40v402h-8zM805 802h33l24 -25v-24l-33 -33q-43 0 -49 24v33zM289 310v-16l114 -115h17zM1173 179h17l115 115v16zM584 228v-8l41 -24h360l33 32h-434z" />
    <path id="S"
d="M1304 163q-6 0 -28 40h-4l-92 -92h-764l-212 212v72q52 49 52 84q-16 76 -76 76h-4q-76 -12 -76 -76v-4q0 -34 52 -84v-88l244 -244h804zM1504 191q92 161 92 172v128q48 44 48 80v4q0 59 -76 72q-54 0 -72 -64v-16q0 -32 48 -76v-116q0 -15 -72 -132h-108
q-76 111 -76 148l-16 384q-96 89 -96 100h-116q-43 -40 -76 -40h-28q-20 0 -48 16q0 -36 -32 -36h-12q-24 15 -24 36q7 28 28 28v4h-60l-8 -36q0 -58 76 -76q31 0 84 52h188l72 -68q13 -424 28 -424l88 -140h168zM1180 195q0 13 60 72l-24 44l-68 -64h-700l-76 72l4 80v104
q48 42 48 76v16q0 51 -76 68q-76 -17 -76 -68v-16q0 -33 52 -80l-4 -176v-20q96 -95 96 -108h764zM1504 403v4q0 34 -48 80l-16 288l-240 236h-140q20 -37 20 -52h100q208 -201 208 -212l16 -264q-48 -39 -48 -68v-16q12 -68 68 -68h16q51 0 64 72zM1432 371h-4
q-32 0 -32 32q0 22 20 32h16q32 0 32 -36q-8 -28 -32 -28zM180 447h-16l-20 20v16q4 32 32 32q36 -5 36 -36q-3 -32 -32 -32zM1568 539q-16 0 -32 24v20q16 24 32 24q36 -6 36 -36q0 -26 -36 -32zM348 551q-36 5 -36 36q0 15 24 32h24q24 -15 24 -36q0 -26 -36 -32z
M1044 943v4q-11 72 -72 72h-4q-34 0 -80 -48h-436l-208 208v208l212 212h684q48 -52 84 -52q72 17 72 72v8q-10 72 -80 72q-24 0 -72 -48h-708l-244 -244v-248l240 -240h456q44 -48 76 -48h16q51 0 64 72zM972 911q-36 6 -36 32q8 36 36 36q15 0 32 -24v-12q0 -32 -32 -32z
M880 1067q-13 76 -72 76h-4q-36 0 -80 -48h-248l-64 64v36l8 8h224q49 -48 84 -48q58 0 72 76q-12 76 -76 76q-32 0 -84 -52h-220l-8 8v48l8 8h96q51 -52 80 -52q76 15 76 76v4q-13 72 -72 72h-4q-34 0 -80 -48h-96l-8 8v28l68 68h492q54 -52 84 -52q76 13 76 76
q-12 76 -76 76q-33 0 -80 -48h-524q0 -8 -92 -100v-288l96 -96h268q47 -48 68 -48h24q49 0 64 72zM816 1035h-20q-24 14 -24 36q0 25 36 32q26 0 32 -36q0 -16 -24 -32zM728 1199h-4q-32 0 -32 36q8 28 32 28h16q20 -10 20 -32q0 -32 -32 -32zM600 1311h-12q-24 17 -24 32
q8 36 36 36q15 0 32 -24v-12q0 -32 -32 -32zM1468 1495q-15 76 -76 76h-12q-26 0 -76 -52h-20l-64 -8l-52 8v-32l-4 -20h140q54 -52 84 -52q80 17 80 80zM1392 1459q-36 5 -36 36q0 22 20 32h28l20 -20v-16q-4 -32 -32 -32zM1060 1467h-4q-32 4 -32 32q3 32 32 32h16
q20 -10 20 -32q0 -32 -32 -32zM1236 1591h-24l-20 20v16q0 28 28 28h16l20 -20v-24z" />
    <path id="R"
d="M908 1625v-16q0 -50 72 -64h4q34 0 76 48h440l208 -208v-416l-212 -212h-28v-4l24 -48h24l244 244v456l-240 240h-456q-47 48 -72 48h-16q-68 -11 -68 -68zM100 1601v-4q15 -72 64 -72h16q31 0 76 48h216l212 -212l16 -1024q-48 -38 -48 -64v-24q0 -49 72 -64q69 0 76 84
q0 29 -48 68l-16 1048l-244 240h-236q-44 48 -80 48h-4q-59 0 -72 -72zM644 1533l36 -32l108 104h84v32l4 20h-108zM980 1653q22 0 32 -20v-16q-4 -32 -32 -32q-32 6 -32 32v16q10 20 32 20zM172 1633q36 -6 36 -36q0 -26 -36 -32q-16 0 -32 24v20q16 24 32 24zM1072 1497
v-4q13 -72 72 -72h4q34 0 80 48h248l64 -64v-36l-8 -8h-228q-44 48 -80 48q-72 -14 -72 -72v-8q15 -72 72 -72q36 0 84 52h224l8 -8v-44l-8 -8h-100q-45 47 -76 48q-76 -13 -76 -72v-16q18 -64 72 -64q36 0 84 52h96l8 -8v-240l-68 -68h-244q-47 48 -72 48h-12
q-72 -11 -72 -72v-4q11 -72 72 -72h12q25 0 72 48h264l100 100v496l-96 100l-4 -4h-264q-51 52 -80 52q-76 -14 -76 -76zM264 1461q13 -76 76 -76q34 0 84 52h20l72 -72l16 -1152l92 -164h172l96 160v136q48 47 48 80v4q-12 72 -72 72h-8q-59 0 -68 -72h-4q0 -35 52 -84
v-112q-15 -51 -76 -132h-104q-12 8 -76 124l-16 1164q-96 89 -96 100h-52q-41 48 -88 48q-53 0 -68 -76zM1144 1529h12q24 -17 24 -32q0 -25 -36 -36q-15 0 -32 24v12q0 32 32 32zM788 1521l-60 -68l36 -36l52 52h224l-4 4v48l-48 -12h-4l-60 12h-136zM336 1493h16
q20 -10 20 -32q0 -32 -32 -32h-4q-32 4 -32 32q3 32 32 32zM1212 1365h16q28 0 28 -28v-16l-20 -20h-24l-20 20v24zM1340 1253h24l20 -20v-24l-20 -20h-24l-20 20v24zM1484 1161v-84l-76 -76h-76l-548 4v-52h40l264 -4q27 16 48 16h20q23 0 48 -16h236q0 13 64 76v136h-20z
M784 909v-4h264v4h-264zM1148 889q25 0 32 -36q0 -26 -36 -32q-32 5 -32 32v4q0 32 36 32zM784 865v-52h120q33 28 76 28h12l44 -12v36h-252zM908 737v-12q14 -68 64 -68h12q33 0 80 48h100q7 0 32 52h-132q-46 48 -80 48h-8q-68 -12 -68 -68zM980 765q32 0 32 -32v-4
q0 -32 -36 -32q-24 0 -28 32v16q10 20 32 20zM1152 597v-136q-48 -47 -48 -80v-4q10 -72 72 -72v-4q76 14 76 72v16q0 24 -48 72v112q15 51 76 132h104l76 -124l16 -660q96 -88 96 -100h220q45 -48 84 -48q58 0 72 76q-13 76 -76 76q-36 0 -84 -52h-188l-72 68l-16 656
q-71 111 -92 160h-172zM1244 553v-12q0 -37 48 -72l16 -544l244 -240h404q46 -48 80 -48h4q72 14 72 72v4q-14 72 -64 72h-16q-32 0 -76 -48h-384l-212 212l-16 516q48 38 48 76v8q0 59 -76 72q-72 -19 -72 -68zM1320 581q26 0 32 -36q0 -32 -32 -32h-12q-24 16 -24 32
q6 36 36 36zM864 461h12q24 -17 24 -32q-6 -32 -32 -32h-16l-20 20v12q0 32 32 32zM1176 409h4q32 0 32 -32q0 -22 -20 -32h-16q-32 0 -32 36q8 28 32 28zM728 293q25 0 32 -36q0 -26 -36 -32q-16 0 -32 24v20q14 24 36 24zM1860 -119h16q32 0 32 -36q-8 -28 -32 -28h-4
q-32 0 -32 32q0 22 20 32zM1584 -219v-4h196v4h-196zM2040 -255q32 0 32 -32v-12q-15 -24 -36 -24q-25 0 -32 36q0 26 36 32z" />
    <path id="T"
d="M100 1672v-4q13 -72 64 -72h16q32 0 76 48h624l212 -212l16 -772q-48 -35 -48 -72v-16q0 -51 72 -64h4q59 0 72 72v4q0 39 -48 76l-16 796l-244 240h-644q-46 48 -80 48h-4q-72 -13 -72 -72zM176 1704q25 0 32 -36q0 -15 -24 -32h-12q-32 0 -32 32v12q15 24 36 24z
M1724 1576h-640l52 -52h588q44 -48 76 -48h16q50 0 64 72v4q-13 72 -72 72h-4q-34 0 -80 -48zM264 1524q0 -53 76 -68q36 0 84 52h424l76 -76l16 -896l92 -164h172q96 149 96 168v128q48 46 48 80v4q-13 72 -72 72h-4q-72 -13 -72 -64v-16q0 -32 48 -76v-124
q-60 -110 -76 -120h-104q-10 3 -76 124l-16 908q-96 87 -96 104h-460q-47 48 -80 48q-68 0 -76 -84zM1808 1584q15 0 32 -24v-12q0 -32 -32 -32q-36 5 -36 36q0 25 36 32zM336 1564h4q32 0 32 -32q0 -22 -20 -32h-16q-32 0 -32 36q8 28 32 28zM1560 1440h-376v-4l4 -48h368
q45 -52 92 -52q53 0 68 76q-14 76 -72 76q-39 0 -84 -48zM1640 1444h4q32 -4 32 -32q-3 -32 -32 -32h-16q-20 10 -20 32q0 32 32 32zM819 1332v-1004q-48 -35 -47 -76q0 -65 80 -76q68 21 68 64l-1 24q0 27 -48 68l1 872l-5 120v56zM1272 784q36 -5 36 -36q0 -25 -36 -32
q-15 0 -32 24v12q0 32 32 32zM1044 744v-4h8v4h-8zM1136 616q25 0 32 -36q0 -15 -24 -32h-12q-32 0 -32 32v12q15 24 36 24zM632 420v-4q0 -34 48 -76v-140l96 -160h172l92 172v116q-44 6 -44 28h-4l-4 -48v-92q-63 -113 -76 -124h-104q-26 24 -76 128v116q48 47 48 72v16
q-11 68 -68 68h-16q-50 0 -64 -72zM704 452h16q20 -10 20 -32t-20 -32h-16q-32 4 -32 32q6 32 32 32zM848 284q32 0 32 -32v-12q-15 -24 -36 -24q-25 0 -32 36q0 26 36 32z" />
    </defs>

    <!-- rect x="0" y="0" width="100%" height="100%" fill="#eee"/ -->

    <g transform="scale(0.1) translate(3250 750)">

    <path stroke="black" fill="none" stroke-width="45" stroke-linecap="round" stroke-linejoin="round"
          d="M 211.797 33.342
             A 220 220 0 0,0 50.612 342.976
             L 220 240
             L 250 160
             L 280 240
             L 449.388 342.976
             A 220 220 0 0,0 288.203 33.342
             M 250 300
             L 157.024 449.388
             A 220 220 0 0,0 342.976 449.388
             L 250 300
             "/>

    </g>

    <!--path stroke="white" fill="black" stroke-width="3" stroke-linecap="round" stroke-linejoin="round"
          d="M 40 360
             L 90 280
             L 410 220
             L 460 140
             A 5,5 0 0,1 470,150
             L 417.5 232.5
             L 100 290
             L 50 370
             A 5,5 0 0,1 40,360
             "/-->

    <!--circle cx="45" cy="365" r="12" stroke="white" fill="black" stroke-width="3"/-->
    <!--circle cx="465" cy="145" r="12" stroke="white" fill="black" stroke-width="3"/-->

    <g transform="scale(0.05 -0.05) translate(7500 -2900)">
        <use x="0" y="0" href="#two"/>
    </g>
    <g transform="scale(0.05 -0.05) translate(9500 -2900)">
        <use x="0" y="0" href="#zero"/>
    </g>
    <g transform="scale(0.05 -0.05) translate(750 -2900)">
        <use x="0" y="0" href="#T"/>
    </g>
    <g transform="scale(0.05 -0.05) translate(2750 -2900)">
        <use x="0" y="0" href="#R"/>
    </g>
    <g transform="scale(0.05 -0.05) translate(4750 -2900)">
        <use x="0" y="0" href="#S"/>
    </g>

</svg>
