<svg height='300px' width='300px'  fill="#000000" xmlns="http://www.w3.org/2000/svg" xmlns:xlink="http://www.w3.org/1999/xlink" version="1.1" x="0px" y="0px" viewBox="0 0 93.351 100" enable-background="new 0 0 93.351 100" xml:space="preserve"><rect x="21.277" y="35.531" width="2.128" height="2.145"></rect><path d="M21.283,44.615l-0.711-2.005c-0.353,0.125-0.919,0.19-1.78,0.205l0.035,2.128C19.956,44.923,20.691,44.825,21.283,44.615z"></path><path d="M23.404,39.894V39.82l-2.128,0.073c0,0.903-0.039,1.494-0.128,1.917l2.084,0.433C23.352,41.665,23.404,40.963,23.404,39.894  z"></path><path d="M20.914,32.065c0.178,0.205,0.287,0.66,0.335,1.392l2.124-0.138c-0.058-0.891-0.205-1.902-0.85-2.647L20.914,32.065z"></path><path d="M18.351,29.521h-0.728v2.128h0.728c0.505,0,0.943,0.011,1.323,0.044l0.185-2.119C19.425,29.536,18.927,29.521,18.351,29.521  z"></path><path d="M15.479,29.521h-1.646c-0.178-0.001-0.354,0.002-0.519,0.004l0.042,2.128c0.151-0.003,0.311-0.005,0.475-0.004h1.649v-2.128  H15.479z"></path><rect x="8.777" y="34.611" width="2.128" height="2.145"></rect><path d="M11.589,31.866l-0.74-1.996c-1.041,0.386-1.665,1.17-1.911,2.398l2.086,0.417C11.147,32.071,11.327,31.962,11.589,31.866z"></path><rect x="14.522" y="42.819" width="2.144" height="2.128"></rect><path d="M8.777,39.894c0,0.451,0.009,0.854,0.031,1.215l2.124-0.129c-0.02-0.323-0.027-0.683-0.027-1.086V38.9H8.777V39.894z"></path><path d="M12.282,44.891l0.193-2.119c-0.876-0.079-1.113-0.253-1.214-0.377L9.62,43.749C10.33,44.611,11.415,44.812,12.282,44.891z"></path><path d="M9.619,86.302c0.711,0.862,1.796,1.063,2.663,1.142l0.193-2.119c-0.876-0.079-1.113-0.253-1.214-0.377L9.619,86.302z"></path><path d="M21.149,84.364l2.084,0.433c0.119-0.579,0.171-1.281,0.171-2.351v-0.073l-2.128,0.073  C21.277,83.35,21.237,83.941,21.149,84.364z"></path><path d="M15.479,72.074h-1.646c-0.178,0-0.354,0.002-0.519,0.004l0.042,2.128c0.151-0.003,0.311-0.003,0.475-0.004h1.649v-2.128  H15.479z"></path><rect x="14.522" y="85.372" width="2.144" height="2.128"></rect><path d="M18.793,85.368l0.035,2.128c1.128-0.019,1.863-0.117,2.455-0.327l-0.711-2.005C20.219,85.288,19.653,85.353,18.793,85.368z"></path><path d="M10.904,82.447v-0.993H8.777v0.993c0,0.451,0.009,0.854,0.031,1.215l2.124-0.129C10.912,83.21,10.904,82.85,10.904,82.447z"></path><path d="M19.859,72.127c-0.433-0.038-0.932-0.052-1.507-0.052h-0.728v2.128h0.728c0.505,0,0.943,0.011,1.323,0.044L19.859,72.127z"></path><rect x="8.777" y="77.164" width="2.128" height="2.145"></rect><path d="M11.589,74.419l-0.74-1.996c-1.041,0.386-1.665,1.17-1.911,2.398l2.086,0.417C11.147,74.624,11.327,74.515,11.589,74.419z"></path><path d="M9.822,65.255c0.76,0.726,2.012,0.968,4.008,0.968h4.521c4.061,0,5.053-0.992,5.053-5.053v-5.319  c0-4.062-0.992-5.053-5.053-5.053H13.83c-1.724,0-2.89,0.182-3.667,0.698c-0.249-0.664-0.624-1.275-1.19-2.007l-1.635-2.117  c-0.596-0.771-1.112-1.361-1.851-1.361c-1.497,0-1.497,1.734-1.497,4.134v5.319c0,3.472,0.163,4.565,1.665,6.507l1.635,2.116  c0.596,0.772,1.112,1.363,1.851,1.363C9.423,65.45,9.637,65.371,9.822,65.255z M10.904,55.851c0-2.871,0.055-2.926,2.926-2.926  h4.521c2.87,0,2.926,0.055,2.926,2.926v5.319c0,2.871-0.055,2.926-2.926,2.926H13.83c-2.87,0-2.926-0.055-2.926-2.926  C10.904,61.17,10.904,55.851,10.904,55.851z M8.511,61.315c0,0.318-0.002,0.606-0.006,0.865l-1.167-1.51  c-1.036-1.341-1.221-1.848-1.221-5.206v-5.319c0-0.318,0.002-0.606,0.006-0.865l1.167,1.51c1.036,1.341,1.221,1.849,1.221,5.206  C8.511,55.996,8.511,61.315,8.511,61.315z"></path><path d="M7.29,21.534c0.596,0.772,1.112,1.363,1.851,1.363c0.281,0,0.495-0.079,0.681-0.195c0.76,0.726,2.012,0.968,4.008,0.968  h4.521c4.061,0,5.053-0.992,5.053-5.053v-5.319c0-4.062-0.992-5.053-5.053-5.053H13.83c-1.724,0-2.89,0.182-3.667,0.698  c-0.249-0.664-0.624-1.275-1.19-2.007L7.338,4.819C6.741,4.048,6.226,3.457,5.486,3.457c-1.497,0-1.497,1.734-1.497,4.134v5.319  c0,3.472,0.163,4.565,1.665,6.507L7.29,21.534z M10.904,13.298c0-2.871,0.055-2.926,2.926-2.926h4.521  c2.87,0,2.926,0.055,2.926,2.926v5.319c0,2.871-0.055,2.926-2.926,2.926H13.83c-2.87,0-2.926-0.055-2.926-2.926  C10.904,18.617,10.904,13.298,10.904,13.298z M6.117,7.592c0-0.318,0.002-0.606,0.006-0.865l1.167,1.51  c1.036,1.341,1.221,1.849,1.221,5.206v5.319c0,0.318-0.002,0.606-0.006,0.865l-1.167-1.51c-1.036-1.341-1.221-1.848-1.221-5.206  C6.117,12.911,6.117,7.592,6.117,7.592z"></path><path d="M47.784,22.472c0.711,0.862,1.796,1.063,2.663,1.142l0.193-2.119c-0.876-0.079-1.113-0.253-1.214-0.377L47.784,22.472z"></path><path d="M56.993,23.666c1.128-0.019,1.863-0.117,2.455-0.327l-0.711-2.005c-0.353,0.125-0.919,0.19-1.78,0.205L56.993,23.666z"></path><rect x="52.687" y="21.543" width="2.144" height="2.128"></rect><path d="M51.995,10.372h1.649V8.245h-1.646c-0.176,0-0.353,0.002-0.519,0.004l0.042,2.128  C51.671,10.373,51.832,10.373,51.995,10.372z"></path><path d="M57.838,10.416l0.185-2.119c-0.433-0.038-0.932-0.052-1.507-0.052h-0.728v2.128h0.728  C57.021,10.372,57.459,10.384,57.838,10.416z"></path><path d="M49.754,10.589l-0.74-1.996c-1.041,0.386-1.665,1.17-1.911,2.398l2.086,0.417C49.312,10.795,49.492,10.686,49.754,10.589z"></path><path d="M61.537,12.042c-0.058-0.891-0.205-1.902-0.85-2.647l-1.608,1.393c0.178,0.205,0.287,0.66,0.335,1.392L61.537,12.042z"></path><path d="M49.096,19.703c-0.02-0.323-0.027-0.683-0.027-1.086v-0.993h-2.128v0.993c0,0.451,0.009,0.854,0.031,1.215L49.096,19.703z"></path><rect x="59.441" y="14.255" width="2.128" height="2.145"></rect><path d="M59.314,20.534l2.084,0.433c0.119-0.579,0.171-1.281,0.171-2.351v-0.073l-2.128,0.073  C59.441,19.52,59.402,20.111,59.314,20.534z"></path><rect x="46.941" y="13.334" width="2.128" height="2.145"></rect><path d="M45.455,64.087c0.596,0.772,1.112,1.363,1.851,1.363c0.281,0,0.495-0.079,0.681-0.195c0.76,0.726,2.012,0.968,4.008,0.968  h4.521c4.061,0,5.053-0.992,5.053-5.053v-5.319c0-4.062-0.992-5.053-5.053-5.053h-4.521c-1.724,0-2.89,0.182-3.667,0.698  c-0.249-0.664-0.624-1.275-1.19-2.007l-1.635-2.117c-0.596-0.771-1.112-1.361-1.851-1.361c-1.497,0-1.497,1.734-1.497,4.134v2.638  c-0.12-0.297-0.266-0.583-0.483-0.834l-1.608,1.393c0.178,0.205,0.287,0.66,0.335,1.392l1.757-0.114v0.845  c0,0.497,0.005,0.935,0.016,1.344h-1.744v2.145h1.936c0.209,1.11,0.623,1.938,1.458,3.019L45.455,64.087z M49.069,55.851  c0-2.871,0.055-2.926,2.926-2.926h4.521c2.87,0,2.926,0.055,2.926,2.926v5.319c0,2.871-0.055,2.926-2.926,2.926h-4.521  c-2.87,0-2.926-0.055-2.926-2.926V55.851z M44.282,50.145c0-0.318,0.002-0.606,0.006-0.865l1.167,1.51  c1.036,1.341,1.221,1.849,1.221,5.206v5.319c0,0.318-0.002,0.606-0.006,0.865l-1.167-1.51c-1.036-1.341-1.221-1.848-1.221-5.206  V50.145z"></path><path d="M42.42,34.187c0,3.472,0.163,4.565,1.665,6.507l1.635,2.116c0.596,0.772,1.112,1.363,1.851,1.363  c0.281,0,0.495-0.079,0.681-0.195c0.76,0.726,2.012,0.968,4.008,0.968h4.521c4.061,0,5.053-0.992,5.053-5.053v-5.319  c0-4.062-0.992-5.053-5.053-5.053H52.26c-1.724,0-2.89,0.182-3.667,0.698c-0.249-0.664-0.624-1.275-1.19-2.007l-1.635-2.117  c-0.596-0.771-1.112-1.361-1.851-1.361c-1.497,0-1.497,1.734-1.497,4.134V34.187z M49.335,34.574c0-2.871,0.055-2.926,2.926-2.926  h4.521c2.87,0,2.926,0.055,2.926,2.926v5.319c0,2.871-0.055,2.926-2.926,2.926h-4.521c-2.87,0-2.926-0.055-2.926-2.926V34.574z   M44.548,28.868c0-0.318,0.002-0.606,0.006-0.865l1.167,1.51c1.036,1.341,1.221,1.849,1.221,5.206v5.319  c0,0.318-0.002,0.606-0.006,0.865l-1.167-1.51c-1.036-1.341-1.221-1.848-1.221-5.206V28.868z"></path><path d="M91.668,5.406l0.041-0.041l-3.989-3.99l-0.016,0.016C86.531,0.219,84.403,0,80.585,0H8.511C0.875,0,0,0.875,0,8.511v78.723  c0,4.543,0.323,6.686,2.187,7.681l2.899,2.899C6.08,99.677,8.223,100,12.766,100H84.84c7.636,0,8.511-0.875,8.511-8.511V12.766  C93.351,8.664,93.091,6.517,91.668,5.406z M3.451,93.17l-0.877-0.877c-0.439-0.911-0.447-2.444-0.447-5.059V8.511  c0-6.383,0-6.383,6.383-6.383h72.074c6.383,0,6.383,0,6.383,6.383v78.723c0,6.383,0,6.383-6.383,6.383H8.511  C5.895,93.617,4.363,93.609,3.451,93.17z M91.223,91.489c0,6.383,0,6.383-6.383,6.383H12.766c-3.715,0-5.263-0.009-5.911-1.27  l0.014-0.014l-0.042-0.042c-0.113-0.235-0.2-0.507-0.262-0.833H6.564c0.599,0.02,74.021,0.032,74.021,0.032  c7.636,0,8.511-0.875,8.511-8.511c0,0-0.012-80.071-0.032-80.67v0.001c2.153,0.41,2.159,1.758,2.159,6.201  C91.223,12.766,91.223,91.489,91.223,91.489z"></path><path d="M61.436,75.076c-0.378-2.357-1.658-3.001-4.92-3.001h-4.521c-1.724,0-2.89,0.182-3.667,0.698  c-0.249-0.664-0.624-1.275-1.19-2.007l-1.635-2.117c-0.596-0.771-1.112-1.361-1.851-1.361c-1.497,0-1.497,1.734-1.497,4.134v3.654  c-0.378-2.357-1.658-3.001-4.92-3.001h-4.521c-1.724,0-2.89,0.182-3.667,0.698c-0.249-0.664-0.624-1.275-1.19-2.007l-1.635-2.117  c-0.596-0.771-1.112-1.361-1.851-1.361c-1.497,0-1.497,1.734-1.497,4.134v2.335c-0.098-0.186-0.208-0.367-0.35-0.532l-1.608,1.393  c0.178,0.205,0.287,0.66,0.335,1.392l1.624-0.106v0.837c0,0.497,0.005,0.935,0.016,1.344H21.28v2.145h1.803  c0.209,1.11,0.623,1.938,1.458,3.019l1.635,2.116c0.596,0.772,1.112,1.363,1.851,1.363c0.281,0,0.495-0.079,0.681-0.195  c0.76,0.726,2.012,0.968,4.008,0.968h4.521c4.061,0,5.053-0.992,5.053-5.053v-2.622c0.181,1.332,0.596,2.213,1.532,3.423  l1.635,2.116c0.596,0.772,1.112,1.363,1.851,1.363c0.281,0,0.495-0.079,0.681-0.195c0.76,0.726,2.012,0.968,4.008,0.968h4.521  c4.061,0,5.053-0.992,5.053-5.053v-2.622c0.181,1.332,0.596,2.213,1.532,3.423l1.635,2.116c0.596,0.772,1.112,1.363,1.851,1.363  c0.281,0,0.495-0.079,0.681-0.195c0.76,0.726,2.012,0.968,4.008,0.968h4.521c4.061,0,5.053-0.992,5.053-5.053v-5.319  c0-4.062-0.992-5.053-5.053-5.053h-4.521c-1.724,0-2.89,0.182-3.667,0.698c-0.249-0.664-0.624-1.275-1.19-2.007l-1.635-2.117  c-0.596-0.771-1.112-1.361-1.851-1.361c-1.497,0-1.497,1.734-1.497,4.134v3.653H61.436z M27.394,82.592  c0,0.318-0.002,0.606-0.006,0.865l-1.167-1.51C25.185,80.606,25,80.099,25,76.741v-5.319c0-0.318,0.002-0.606,0.006-0.865  l1.167,1.51c1.036,1.341,1.221,1.849,1.221,5.206C27.394,77.273,27.394,82.592,27.394,82.592z M40.16,82.447  c0,2.871-0.055,2.926-2.926,2.926h-4.521c-2.87,0-2.926-0.055-2.926-2.926v-5.319c0-2.871,0.055-2.926,2.926-2.926h4.521  c2.87,0,2.926,0.055,2.926,2.926V82.447z M46.676,82.592c0,0.318-0.002,0.606-0.006,0.865l-1.167-1.51  c-1.036-1.341-1.221-1.848-1.221-5.206v-5.319c0-0.318,0.002-0.606,0.006-0.865l1.167,1.51c1.036,1.341,1.221,1.849,1.221,5.206  V82.592z M59.441,82.447c0,2.871-0.055,2.926-2.926,2.926h-4.521c-2.87,0-2.926-0.055-2.926-2.926v-5.319  c0-2.871,0.055-2.926,2.926-2.926h4.521c2.87,0,2.926,0.055,2.926,2.926V82.447z M68.351,77.128c0-2.871,0.055-2.926,2.926-2.926  h4.521c2.87,0,2.926,0.055,2.926,2.926v5.319c0,2.871-0.055,2.926-2.926,2.926h-4.521c-2.87,0-2.926-0.055-2.926-2.926  C68.351,82.447,68.351,77.128,68.351,77.128z M63.564,71.422c0-0.318,0.002-0.606,0.006-0.865l1.167,1.51  c1.036,1.341,1.221,1.849,1.221,5.206v5.319c0,0.318-0.002,0.606-0.006,0.865l-1.167-1.51c-1.036-1.341-1.221-1.848-1.221-5.206  C63.564,76.741,63.564,71.422,63.564,71.422z"></path><rect x="66.223" y="13.334" width="2.128" height="2.145"></rect><path d="M68.707,21.118l-1.641,1.354c0.711,0.862,1.796,1.063,2.663,1.142l0.193-2.119C69.046,21.415,68.809,21.242,68.707,21.118z"></path><path d="M68.378,19.703c-0.02-0.323-0.027-0.683-0.027-1.086v-0.993h-2.128v0.993c0,0.451,0.009,0.854,0.031,1.215L68.378,19.703z"></path><path d="M69.036,10.589l-0.74-1.996c-1.041,0.386-1.665,1.17-1.911,2.398l2.086,0.417C68.594,10.795,68.774,10.686,69.036,10.589z"></path><rect x="78.723" y="14.255" width="2.128" height="2.145"></rect><path d="M80.819,12.042c-0.058-0.891-0.205-1.902-0.85-2.647l-1.608,1.393c0.178,0.205,0.287,0.66,0.335,1.392L80.819,12.042z"></path><path d="M76.275,23.666c1.128-0.019,1.863-0.117,2.455-0.327l-0.711-2.005c-0.353,0.125-0.919,0.19-1.78,0.205L76.275,23.666z"></path><path d="M78.596,20.534l2.084,0.433c0.119-0.579,0.171-1.281,0.171-2.351v-0.073l-2.128,0.073  C78.723,19.52,78.684,20.111,78.596,20.534z"></path><rect x="71.969" y="21.543" width="2.144" height="2.128"></rect><path d="M77.12,10.416l0.185-2.119c-0.433-0.038-0.932-0.052-1.507-0.052H75.07v2.128h0.728  C76.303,10.372,76.741,10.384,77.12,10.416z"></path><path d="M71.277,10.372h1.649V8.245H71.28c-0.177,0.002-0.354,0.001-0.519,0.004l0.042,2.128  C70.952,10.374,71.112,10.372,71.277,10.372z"></path><path d="M76.275,66.219c1.128-0.019,1.863-0.117,2.455-0.327l-0.711-2.005c-0.353,0.125-0.919,0.19-1.78,0.205L76.275,66.219z"></path><path d="M78.596,63.087l2.084,0.433c0.119-0.579,0.171-1.281,0.171-2.351v-0.073l-2.128,0.073  C78.723,62.074,78.684,62.665,78.596,63.087z"></path><path d="M80.819,54.595c-0.058-0.891-0.205-1.902-0.85-2.647l-1.608,1.393c0.178,0.205,0.287,0.66,0.335,1.392L80.819,54.595z"></path><rect x="78.723" y="56.808" width="2.128" height="2.145"></rect><path d="M71.277,52.926h1.649v-2.128H71.28c-0.177,0.001-0.354,0.001-0.519,0.004l0.042,2.128  C70.952,52.927,71.112,52.926,71.277,52.926z"></path><path d="M68.296,51.146c-1.041,0.386-1.665,1.17-1.911,2.398l2.086,0.417c0.123-0.613,0.302-0.722,0.564-0.819L68.296,51.146z"></path><path d="M69.729,66.167l0.193-2.119c-0.876-0.079-1.113-0.253-1.214-0.377l-1.641,1.354C67.777,65.887,68.862,66.088,69.729,66.167z  "></path><path d="M77.12,52.97l0.185-2.119c-0.433-0.038-0.932-0.052-1.507-0.052H75.07v2.128h0.728C76.303,52.926,76.741,52.937,77.12,52.97  z"></path><rect x="71.969" y="64.096" width="2.144" height="2.128"></rect><rect x="66.223" y="55.887" width="2.128" height="2.145"></rect><path d="M68.378,62.256c-0.02-0.323-0.027-0.683-0.027-1.086v-0.993h-2.128v0.993c0,0.451,0.009,0.854,0.031,1.215L68.378,62.256z"></path><path d="M68.707,42.395l-1.641,1.354c0.711,0.862,1.796,1.063,2.663,1.142l0.193-2.119C69.046,42.692,68.809,42.518,68.707,42.395z"></path><rect x="78.723" y="35.531" width="2.128" height="2.145"></rect><path d="M78.596,41.811l2.084,0.433c0.119-0.579,0.171-1.281,0.171-2.351V39.82l-2.128,0.073  C78.723,40.797,78.684,41.388,78.596,41.811z"></path><path d="M77.12,31.693l0.185-2.119c-0.433-0.038-0.932-0.052-1.507-0.052H75.07v2.128h0.728  C76.303,31.649,76.741,31.66,77.12,31.693z"></path><path d="M76.239,42.814l0.035,2.128c1.128-0.019,1.863-0.117,2.455-0.327l-0.711-2.005C77.666,42.735,77.1,42.8,76.239,42.814z"></path><path d="M80.819,33.318c-0.058-0.891-0.205-1.902-0.85-2.647l-1.608,1.393c0.178,0.205,0.287,0.66,0.335,1.392L80.819,33.318z"></path><path d="M68.378,40.98c-0.02-0.323-0.027-0.683-0.027-1.086V38.9h-2.128v0.993c0,0.451,0.009,0.854,0.031,1.215L68.378,40.98z"></path><rect x="71.969" y="42.819" width="2.144" height="2.128"></rect><path d="M71.277,31.649h1.649v-2.128H71.28c-0.177,0-0.354,0.002-0.519,0.004l0.042,2.128C70.952,31.65,71.112,31.65,71.277,31.649z  "></path><rect x="66.223" y="34.611" width="2.128" height="2.145"></rect><path d="M68.296,29.87c-1.041,0.386-1.665,1.17-1.911,2.398l2.086,0.417c0.123-0.613,0.302-0.722,0.564-0.819L68.296,29.87z"></path><path d="M26.705,21.534c0.596,0.772,1.112,1.363,1.851,1.363c0.281,0,0.495-0.079,0.681-0.195c0.76,0.726,2.012,0.968,4.008,0.968  h4.521c4.061,0,5.053-0.992,5.053-5.053v-5.319c0-4.062-0.992-5.053-5.053-5.053h-4.521c-1.724,0-2.89,0.182-3.667,0.698  c-0.249-0.664-0.624-1.275-1.19-2.007l-1.635-2.117c-0.596-0.771-1.112-1.361-1.851-1.361c-1.497,0-1.497,1.734-1.497,4.134v5.319  c0,3.472,0.163,4.565,1.665,6.507L26.705,21.534z M30.319,13.298c0-2.871,0.055-2.926,2.926-2.926h4.521  c2.87,0,2.926,0.055,2.926,2.926v5.319c0,2.871-0.055,2.926-2.926,2.926h-4.521c-2.87,0-2.926-0.055-2.926-2.926  C30.319,18.617,30.319,13.298,30.319,13.298z M25.532,7.592c0-0.318,0.002-0.606,0.006-0.865l1.167,1.51  c1.036,1.341,1.221,1.849,1.221,5.206v5.319c0,0.318-0.002,0.606-0.006,0.865l-1.167-1.51c-1.036-1.341-1.221-1.848-1.221-5.206  V7.592z"></path><rect x="33.671" y="64.096" width="2.144" height="2.128"></rect><path d="M34.627,50.798h-1.646c-0.179,0.001-0.353,0.001-0.519,0.004l0.042,2.128c0.152-0.003,0.31-0.004,0.475-0.004h1.649  L34.627,50.798L34.627,50.798z"></path><rect x="27.926" y="55.887" width="2.128" height="2.145"></rect><path d="M37.5,50.798h-0.728v2.128H37.5c0.505,0,0.943,0.011,1.323,0.044l0.185-2.119C38.574,50.812,38.076,50.798,37.5,50.798z"></path><path d="M40.432,65.891l-0.711-2.005c-0.353,0.125-0.919,0.19-1.78,0.205l0.035,2.128C39.105,66.2,39.84,66.102,40.432,65.891z"></path><path d="M42.553,61.17v-0.073l-2.128,0.073c0,0.903-0.039,1.494-0.128,1.917l2.084,0.433C42.501,62.942,42.553,62.239,42.553,61.17z  "></path><path d="M27.926,61.17c0,0.451,0.009,0.854,0.031,1.215l2.124-0.129c-0.02-0.323-0.027-0.683-0.027-1.086v-0.993h-2.128V61.17z"></path><path d="M31.431,66.167l0.193-2.119c-0.876-0.079-1.113-0.253-1.214-0.377l-1.641,1.354C29.479,65.887,30.564,66.088,31.431,66.167z  "></path><path d="M30.738,53.142l-0.74-1.996c-1.041,0.386-1.665,1.17-1.911,2.398l2.086,0.417C30.296,53.348,30.476,53.239,30.738,53.142z"></path><path d="M39.797,32.065c0.178,0.205,0.287,0.66,0.335,1.392l2.124-0.138c-0.058-0.891-0.205-1.902-0.85-2.647L39.797,32.065z"></path><path d="M36.506,29.521v2.128h0.728c0.505,0,0.943,0.011,1.323,0.044l0.185-2.119c-0.433-0.038-0.932-0.052-1.507-0.052h-0.729  V29.521z"></path><path d="M37.676,42.814l0.035,2.128c1.128-0.019,1.863-0.117,2.455-0.327l-0.711-2.005C39.102,42.735,38.536,42.8,37.676,42.814z"></path><path d="M42.287,39.82l-2.128,0.073c0,0.903-0.039,1.494-0.128,1.917l2.084,0.433c0.119-0.579,0.171-1.281,0.171-2.351L42.287,39.82  L42.287,39.82z"></path><rect x="40.16" y="35.531" width="2.128" height="2.145"></rect><path d="M32.196,29.525l0.042,2.128c0.152-0.003,0.31-0.005,0.475-0.004h1.649v-2.128h-1.646  C32.537,29.521,32.363,29.523,32.196,29.525z"></path><path d="M27.822,32.268l2.086,0.417c0.123-0.613,0.302-0.722,0.564-0.819l-0.74-1.996C28.691,30.256,28.067,31.04,27.822,32.268z"></path><rect x="27.66" y="34.611" width="2.128" height="2.145"></rect><path d="M27.66,39.894c0,0.451,0.009,0.854,0.031,1.215l2.124-0.129c-0.02-0.323-0.027-0.683-0.027-1.086V38.9H27.66V39.894z"></path><path d="M28.502,43.748c0.711,0.862,1.796,1.063,2.663,1.142l0.193-2.119c-0.876-0.079-1.113-0.253-1.214-0.377L28.502,43.748z"></path><rect x="33.405" y="42.819" width="2.144" height="2.128"></rect></svg>