<?xml version="1.0" encoding="UTF-8"?>
<svg xmlns="http://www.w3.org/2000/svg" viewBox="0 0 500 100" style="width:100%">
    <defs>
        <g id="and">
            <path d="M 5,0 h 10 c 10,0 10,15 0,15 h -10 z"/>
            <line x1="0" y1="3.5" x2="5" y2="3.5"/>
            <line x1="0" y1="11.5" x2="5" y2="11.5"/>
            <line x1="22" y1="7.5" x2="30" y2="7.5"/>
        </g>
        <g id="nand">
            <use xlink:href="#and" x="0" y="0"/>
            <circle cx="25" cy="7.5" r="2"/>
        </g>
        <g id="or">
            <path d="M 22.5,7.5 c -5,-7.5 -14,-7.5 -17.5,-7.5
                              c 4,3 4,12 0,15
                              c 2,0 12,0 17.5,-7.5"/>
            <line x1="0" y1="3.5" x2="7" y2="3.5"/>
            <line x1="0" y1="11.5" x2="7" y2="11.5"/>
            <line x1="22" y1="7.5" x2="30" y2="7.5"/>
        </g>
        <g id="nor">
            <use xlink:href="#or" x="0" y="0"/>
            <circle cx="25" cy="7.5" r="2"/>
        </g>
        <g id="xor">
            <use xlink:href="#or" x="0" y="0"/>
            <path d="M 2,0 c 4,3 4,12 0,15"/>
        </g>
        <g id="xnor">
            <use xlink:href="#xor" x="0" y="0"/>
            <circle cx="25" cy="7.5" r="2"/>
        </g>
    </defs>
    <style>
        text { font: normal 8px sans-serif; }
        line { fill: none; stroke: black; }
        path { fill: none; stroke: black; }
        circle { fill: white; stroke: black; }
    </style>
    <rect x="0" y="0" width="100%" height="100%" fill="none" stroke="black"/>
    <text x="38" y="8" text-anchor="end" alignment-baseline="central" text-decoration="underline">Z180</text>
    <text x="87" y="8" text-anchor="start" alignment-baseline="central" text-decoration="underline">SRAM</text>
    <text x="40" y="20" text-anchor="end" alignment-baseline="central">/MREQ</text>
    <line x1="42" y1="20" x2="50" y2="20"/>
    <text x="40" y="28" text-anchor="end" alignment-baseline="central">A19</text>
    <line x1="42" y1="28" x2="50" y2="28"/>
    <use xlink:href="#nand" x="50" y="16.5" />
    <circle cx="52.5" cy="20" r="2"/>
    <line x1="80" y1="24" x2="88" y2="24"/>
    <text x="90" y="24" text-anchor="start" alignment-baseline="central">/CE</text>
    <text x="40" y="37" text-anchor="end" alignment-baseline="central">/RD</text>
    <line x1="42" y1="37" x2="88" y2="37"/>
    <text x="90" y="37" text-anchor="start" alignment-baseline="central">/OE</text>
    <text x="40" y="47" text-anchor="end" alignment-baseline="central">/WR</text>
    <line x1="42" y1="47" x2="88" y2="47"/>
    <text x="90" y="47" text-anchor="start" alignment-baseline="central">/WE</text>
    <text x="40" y="57" text-anchor="end" alignment-baseline="central">A0:18</text>
    <line x1="42" y1="57" x2="88" y2="57"/>
    <text x="90" y="57" text-anchor="start" alignment-baseline="central">A0:18</text>
    <text x="40" y="67" text-anchor="end" alignment-baseline="central">D0:7</text>
    <line x1="42" y1="67" x2="88" y2="67"/>
    <text x="90" y="67" text-anchor="start" alignment-baseline="central">IO0:7</text>
    <!-- /CE = (nand! /MREQ A19)
    <use xlink:href="#and" x="30" y="20" />
    <use xlink:href="#nand" x="30" y="40" />
    <use xlink:href="#or" x="80" y="20" />
    <use xlink:href="#nor" x="80" y="40" />
    <use xlink:href="#xor" x="130" y="20" />
    <use xlink:href="#xnor" x="130" y="40" />
    -->
</svg>
