<?xml version="1.0" encoding="UTF-8"?>
<svg xmlns="http://www.w3.org/2000/svg" width="255px" height="255px" viewBox="0 0 255 255" version="1.1">
<g transform="translate(-38 -38)">
<rect x="90" y="90" rx="20" ry="20" width="150" height="150"/>
<circle cx="120" cy="120" r="5" fill="white"/>
<rect x="50" y="110" rx="3" ry="3" width="30" height="10"/>
<rect x="50" y="135" rx="3" ry="3" width="30" height="10"/>
<rect x="50" y="160" rx="3" ry="3" width="30" height="10"/>
<rect x="50" y="185" rx="3" ry="3" width="30" height="10"/>
<rect x="50" y="210" rx="3" ry="3" width="30" height="10"/>
<rect x="250" y="110" rx="3" ry="3" width="30" height="10"/>
<rect x="250" y="135" rx="3" ry="3" width="30" height="10"/>
<rect x="250" y="160" rx="3" ry="3" width="30" height="10"/>
<rect x="250" y="185" rx="3" ry="3" width="30" height="10"/>
<rect x="250" y="210" rx="3" ry="3" width="30" height="10"/>
<rect y="50" x="110" rx="3" ry="3" width="10" height="30"/>
<rect y="50" x="135" rx="3" ry="3" width="10" height="30"/>
<rect y="50" x="160" rx="3" ry="3" width="10" height="30"/>
<rect y="50" x="185" rx="3" ry="3" width="10" height="30"/>
<rect y="50" x="210" rx="3" ry="3" width="10" height="30"/>
<rect y="250" x="110" rx="3" ry="3" width="10" height="30"/>
<rect y="250" x="135" rx="3" ry="3" width="10" height="30"/>
<rect y="250" x="160" rx="3" ry="3" width="10" height="30"/>
<rect y="250" x="185" rx="3" ry="3" width="10" height="30"/>
<rect y="250" x="210" rx="3" ry="3" width="10" height="30"/>
</g>
</svg>

